<?xml version="1.0" standalone="no"?>
<!DOCTYPE svg PUBLIC "-//W3C//DTD SVG 20010904//EN"
 "http://www.w3.org/TR/2001/REC-SVG-20010904/DTD/svg10.dtd">
<svg version="1.0" xmlns="http://www.w3.org/2000/svg"
 width="499.000000pt" height="116.000000pt" viewBox="0 0 499.000000 116.000000"
 preserveAspectRatio="xMidYMid meet">
<metadata>
Created by potrace 1.16, written by Peter Selinger 2001-2019
</metadata>
<g transform="translate(0.000000,116.000000) scale(0.100000,-0.100000)"
fill="#000000" stroke="none">
<path d="M2248 1011 c-37 -32 -80 -99 -57 -87 8 4 5 0 -5 -8 -11 -9 -16 -16
-10 -16 5 0 4 -4 -2 -8 -27 -17 -105 -209 -133 -327 -9 -35 -26 -66 -61 -105
-71 -81 -76 -61 -21 91 45 125 -25 140 -100 20 -34 -53 -37 -42 -9 29 22 56
15 90 -20 90 -22 0 -80 -77 -116 -154 -14 -31 -28 -56 -31 -56 -8 0 6 50 24
88 15 31 15 35 0 50 -16 15 -18 15 -31 -3 -8 -11 -22 -45 -30 -76 -17 -60 -81
-154 -97 -143 -14 8 -1 89 23 146 17 39 18 51 8 63 -16 19 -34 19 -50 0 -17
-21 -23 -19 -42 15 -10 17 -25 30 -36 30 -30 0 -70 -37 -97 -90 -32 -63 -141
-200 -160 -200 -15 0 -16 -1 40 138 20 50 13 62 -37 62 -35 0 -43 15 -24 44
16 26 12 36 -15 36 -21 0 -52 -41 -47 -63 4 -18 -81 -136 -123 -171 -17 -14
-40 -26 -51 -26 -19 0 -20 4 -14 53 4 30 13 56 22 62 63 40 97 70 111 100 16
33 15 36 -2 55 -40 44 -114 9 -154 -73 -25 -53 -38 -102 -24 -94 6 4 8 -3 5
-18 -2 -14 -8 -22 -13 -19 -5 3 -9 -7 -9 -21 0 -32 50 -85 79 -85 24 0 76 51
141 138 39 52 48 60 70 55 14 -3 26 -7 28 -8 2 -1 -9 -28 -23 -60 -37 -84 -30
-155 14 -155 23 0 111 77 131 114 l14 27 16 -33 c28 -61 66 -43 146 68 l21 29
-10 -50 c-12 -61 5 -108 41 -113 27 -4 45 9 83 60 23 32 28 36 39 23 22 -27
37 -16 63 45 33 76 99 179 104 163 2 -6 -4 -29 -15 -50 -34 -68 -35 -143 -2
-143 5 0 22 24 38 53 17 28 42 66 57 82 l26 30 -17 -40 c-8 -22 -20 -50 -25
-63 -14 -36 -11 -95 7 -120 24 -35 57 -28 98 21 34 40 36 41 36 17 0 -33 26
-70 48 -69 11 0 27 22 45 58 35 76 97 147 120 138 16 -6 15 -11 -4 -59 -11
-29 -28 -60 -37 -68 -14 -14 -15 -13 -2 5 8 11 -1 6 -20 -12 -37 -35 -35 -63
4 -63 18 0 42 19 87 69 l62 70 16 -32 c9 -17 28 -38 43 -46 24 -14 28 -14 47
3 33 30 95 125 87 134 -5 4 -15 -4 -25 -17 -27 -40 -81 -91 -97 -91 -21 0 -17
24 12 87 22 45 24 57 13 64 -27 18 -54 5 -65 -30 -10 -32 -37 -61 -56 -61 -4
0 -8 13 -8 29 0 32 -22 61 -47 61 -17 0 -92 -73 -130 -125 l-21 -30 14 74 c19
101 20 103 57 128 54 37 103 94 143 168 33 60 39 79 39 133 0 52 -4 66 -19 78
-28 20 -41 18 -78 -15z m70 -78 c-6 -79 -29 -121 -110 -206 -79 -82 -79 -82
-9 96 47 122 95 197 114 178 5 -5 8 -36 5 -68z"/>
<path d="M4473 968 c-35 -39 -55 -77 -47 -89 4 -8 3 -9 -4 -5 -14 9 -67 -97
-112 -224 -19 -52 -44 -110 -57 -128 -25 -38 -65 -72 -83 -72 -16 0 -6 51 20
105 15 30 17 41 7 47 -27 17 -49 8 -64 -29 -14 -34 -118 -131 -129 -121 -2 3
8 27 23 55 28 57 26 83 -9 83 -18 0 -35 -18 -71 -74 -27 -41 -62 -86 -78 -102
l-29 -28 0 28 c0 71 111 216 165 216 30 0 34 25 5 40 -39 21 -73 0 -180 -111
-58 -60 -110 -109 -117 -109 -17 0 9 88 41 137 32 48 29 86 -7 81 -19 -3 -54
-41 -124 -134 l-22 -29 6 35 c3 19 16 55 29 79 31 56 30 63 -3 59 -25 -3 -30
-12 -58 -91 -19 -58 -39 -96 -55 -109 -21 -17 -25 -18 -28 -5 -2 9 4 36 12 62
22 62 20 75 -7 75 -16 0 -35 -17 -65 -59 -87 -119 -128 -133 -86 -30 14 34 32
72 40 85 19 27 11 44 -19 44 -42 0 -102 -128 -95 -205 3 -35 6 -40 29 -43 21
-2 37 8 77 53 49 54 51 55 46 26 -13 -64 51 -84 101 -31 26 27 30 28 46 14 15
-14 19 -13 38 12 11 15 21 29 21 33 1 3 17 24 36 46 34 39 35 39 20 8 -22 -45
-21 -116 2 -136 26 -24 49 -21 77 9 l25 27 0 -26 c0 -36 9 -56 31 -68 27 -14
50 1 95 63 55 77 56 77 38 18 -13 -43 -30 -70 -83 -125 -114 -119 -134 -160
-107 -214 18 -35 54 -48 85 -31 28 15 72 104 111 225 30 97 33 101 91 148 38
31 59 43 59 34 0 -22 49 -77 68 -77 10 0 34 19 54 42 l37 43 -9 -35 c-6 -19
-10 -63 -10 -98 0 -54 4 -67 25 -88 18 -18 32 -23 48 -19 34 10 117 103 169
191 54 91 64 114 50 114 -6 0 -34 -39 -64 -87 -69 -113 -128 -179 -152 -170
-16 6 -18 16 -13 75 8 92 31 161 70 213 145 193 200 318 163 374 -20 31 -46
32 -73 3z"/>
<path d="M762 922 c-51 -27 -98 -78 -110 -119 -14 -48 -4 -94 48 -220 22 -52
40 -107 40 -122 0 -73 -115 -152 -158 -109 -17 17 -15 80 4 128 20 50 12 61
-22 29 -37 -34 -52 -69 -48 -109 3 -32 3 -33 -6 -10 -8 22 -9 20 -5 -10 8 -49
34 -72 92 -77 75 -7 139 21 180 81 43 63 43 99 -2 187 -19 38 -33 69 -30 69 3
0 -2 16 -10 36 -34 81 -7 157 70 201 63 36 104 27 96 -21 -1 -10 -18 -42 -38
-70 -40 -59 -28 -74 22 -26 45 44 69 91 62 121 -13 52 -121 76 -185 41z"/>
<path d="M2763 890 c-33 -20 -83 -103 -83 -138 0 -11 7 -25 15 -32 12 -10 16
-9 21 6 28 87 93 169 115 147 14 -14 -11 -113 -46 -183 -12 -25 -44 -98 -69
-163 -52 -129 -57 -180 -20 -185 18 -3 25 7 44 58 43 114 252 410 290 410 18
0 10 -22 -49 -134 -71 -133 -100 -224 -83 -261 6 -14 17 -25 24 -25 7 0 31 33
53 72 42 75 152 221 188 250 45 35 42 7 -12 -106 -18 -37 -30 -75 -27 -83 4
-9 2 -11 -6 -7 -8 5 -9 2 -5 -10 4 -9 3 -15 -2 -11 -21 12 -55 -157 -41 -206
20 -70 70 -95 129 -64 33 16 53 52 24 40 -39 -14 -72 -16 -93 -5 -19 10 -21
17 -15 48 7 40 85 243 116 304 37 72 20 148 -31 148 -42 0 -98 -53 -170 -162
-33 -49 -60 -87 -60 -84 0 8 75 175 100 221 29 56 13 115 -33 115 -24 0 -90
-68 -158 -164 -27 -38 -49 -66 -49 -62 0 5 14 49 31 100 31 92 33 142 8 172
-16 20 -69 17 -106 -6z"/>
</g>
</svg>
